<?xml version="1.0" encoding="UTF-8"?>
<!DOCTYPE svg PUBLIC "-//W3C//DTD SVG 1.1//EN" "http://www.w3.org/Graphics/SVG/1.1/DTD/svg11.dtd">
<svg xmlns="http://www.w3.org/2000/svg" xml:space="preserve" width="58.5048mm" height="22.9491mm" version="1.1" style="shape-rendering:geometricPrecision; text-rendering:geometricPrecision; image-rendering:optimizeQuality; fill-rule:evenodd; clip-rule:evenodd"
 viewBox="0 0 3965.84 1555.64">
<defs>
  <style type="text/css">
   <![CDATA[
 .fil2 {fill:currentColor}
 .fil3 {fill:currentColor}
 .fil4 {fill:currentColor}
 .fil0 {fill:currentColor;fill-rule:nonzero}
 .fil1 {fill:currentColor;opacity:0.6;fill-rule:nonzero}
   ]]>
  </style>
 </defs>
<g id="Layer_x0020_1">
  <polygon class="fil0" points="2114.36,1548.75 2114.36,1222.76 1985.8,1222.76 1985.8,1147 2335.9,1147 2335.9,1222.76 2207.33,1222.76 2207.33,1548.75 "/>
  <path class="fil0" d="M1644.88 1548.75l0 -401.75 173.9 0c35.97,0 66.96,5.84 92.98,17.5 26.02,11.67 46.1,28.41 60.26,50.22 14.15,21.81 21.23,47.82 21.23,78.06 0,29.84 -7.08,55.67 -21.23,77.48 -14.16,21.81 -34.25,38.54 -60.26,50.22 -26.02,11.67 -57.02,17.5 -92.98,17.5l-122.25 0 36.36 -36.86 -36.36 -38.9 117.08 0c28.7,0 50.13,-6.12 64.28,-18.36 14.16,-12.24 21.24,-29.27 21.24,-51.08 0,-22.19 -7.08,-39.41 -21.24,-51.66 -14.15,-12.24 -35.58,-18.36 -64.28,-18.36l-117.08 0 41.32 -44.19 0 217.52 0 10.33 0 142.33 -92.98 0z"/>
  <polygon class="fil0" points="1182.87,1548.75 1182.87,1147 1259.78,1147 1430.81,1430.53 1390.06,1430.53 1558.22,1147 1634.55,1147 1635.7,1548.75 1548.46,1548.75 1547.89,1280.73 1563.96,1280.73 1429.66,1506.28 1387.76,1506.28 1250.59,1280.73 1270.11,1280.73 1270.11,1548.75 "/>
  <path class="fil0" d="M945.26 1555.64c-31.76,0 -61.12,-5.17 -88.1,-15.5 -26.98,-10.33 -50.32,-24.87 -70.02,-43.62 -19.71,-18.74 -35,-40.75 -45.91,-66 -10.91,-25.26 -16.36,-52.81 -16.36,-82.65 0,-29.85 5.45,-57.39 16.36,-82.65 10.91,-25.26 26.31,-47.25 46.2,-66 19.9,-18.75 43.23,-33.29 70.02,-43.62 26.78,-10.33 55.86,-15.5 87.23,-15.5 31.76,0 60.93,5.17 87.53,15.5 26.59,10.33 49.74,24.87 69.45,43.62 19.71,18.75 35.11,40.65 46.2,65.71 11.09,25.06 16.64,52.7 16.64,82.94 0,29.84 -5.55,57.48 -16.64,82.93 -11.1,25.45 -26.5,47.44 -46.2,66 -19.71,18.55 -42.85,33 -69.45,43.33 -26.59,10.33 -55.57,15.5 -86.95,15.5zm-0.58 -79.2c17.98,0 34.54,-3.06 49.65,-9.19 15.12,-6.12 28.41,-14.92 39.89,-26.4 11.48,-11.48 20.37,-25.07 26.69,-40.75 6.31,-15.69 9.47,-33.09 9.47,-52.22 0,-19.14 -3.16,-36.54 -9.47,-52.23 -6.32,-15.69 -15.12,-29.27 -26.4,-40.75 -11.29,-11.48 -24.59,-20.27 -39.89,-26.4 -15.31,-6.12 -31.95,-9.19 -49.94,-9.19 -17.98,0 -34.53,3.06 -49.64,9.19 -15.12,6.12 -28.41,14.92 -39.89,26.4 -11.48,11.48 -20.37,25.07 -26.69,40.75 -6.31,15.69 -9.47,33.09 -9.47,52.23 0,18.74 3.16,36.06 9.47,51.94 6.32,15.88 15.12,29.55 26.4,41.04 11.29,11.48 24.59,20.27 39.89,26.4 15.31,6.12 31.95,9.19 49.93,9.19z"/>
  <polygon class="fil0" points="618.13,1548.75 517.69,1402.98 616.98,1402.98 718.56,1548.75 "/>
  <path class="fil0" d="M362.73 1548.75l0 -401.75 173.9 0c35.97,0 66.96,5.84 92.98,17.5 26.02,11.67 46.1,28.41 60.26,50.22 14.15,21.81 21.23,47.82 21.23,78.06 0,29.84 -7.08,55.57 -21.23,77.19 -14.16,21.62 -34.25,38.17 -60.26,49.65 -26.02,11.48 -57.02,17.22 -92.98,17.22l-122.25 0 36.27 -35.76 -36.27 -38.28 117.08 0c28.7,0 50.13,-6.22 64.28,-18.65 14.16,-12.43 21.24,-29.55 21.24,-51.36 0,-22.19 -7.08,-39.41 -21.24,-51.66 -14.15,-12.24 -35.58,-18.36 -64.28,-18.36l-117.08 0 41.32 -44.19 0 217.52 0 10.33 0 142.33 -92.98 0z"/>
  <path class="fil0" d="M-0 1548.75l0 -186.92 92.98 0 0 44.59 -41.32 -44.2 117.08 0c28.7,0 50.13,-6.12 64.28,-18.36 14.16,-12.24 21.24,-29.27 21.24,-51.08 0,-22.19 -7.08,-39.41 -21.24,-51.66 -14.15,-12.24 -35.58,-18.36 -64.28,-18.36l-117.08 0 41.32 -44.19 0 44.33 -92.98 0 0 -75.9 173.9 0c35.97,0 66.96,5.84 92.98,17.5 26.02,11.67 46.1,28.41 60.26,50.22 14.15,21.81 21.23,47.82 21.23,78.06 0,29.84 -7.08,55.67 -21.23,77.48 -14.16,21.81 -34.25,38.54 -60.26,50.22 -26.02,11.67 -57.02,17.5 -92.98,17.5l-122.25 0 41.32 -41.89 0 152.66 -92.98 0z"/>
  <polygon class="fil1" points="3744.3,1548.75 3744.3,1222.76 3615.74,1222.76 3615.74,1147 3965.84,1147 3965.84,1222.76 3837.27,1222.76 3837.27,1548.75 "/>
  <polygon class="fil1" points="3437.81,1548.75 3437.81,1147 3530.79,1147 3530.79,1472.99 3732.25,1472.99 3732.25,1548.75 "/>
  <path class="fil1" d="M3232.92 1555.64c-57.01,0 -101.58,-15.88 -133.73,-47.63 -32.14,-31.76 -48.21,-77.1 -48.21,-136.02l0 -224.98 92.98 0 0 221.54c0,38.26 7.85,65.81 23.54,82.65 15.69,16.83 37.69,25.25 66,25.25 28.31,0 50.32,-8.42 66,-25.25 15.69,-16.84 23.54,-44.39 23.54,-82.65l0 -221.54 91.82 0 0 224.98c0,58.92 -16.07,104.26 -48.21,136.02 -32.14,31.76 -76.71,47.63 -133.72,47.63z"/>
  <polygon class="fil1" points="2746.23,1462.66 2770.91,1392.07 2977.52,1392.07 3002.77,1462.66 "/>
  <polygon class="fil1" points="2639.48,1548.75 2818.54,1147 2910.37,1147 3090.02,1548.75 2992.44,1548.75 2845.52,1194.07 2882.25,1194.07 2734.75,1548.75 "/>
  <polygon class="fil1" points="2576.43,1434.29 2547.07,1502.84 2527.41,1548.75 2618.82,1548.75 2792.72,1147 2700.32,1147 2608.58,1359.25 "/>
  <polygon class="fil1" points="2499.51,1485.07 2353.66,1147 2454.1,1147 2548.92,1369.69 2513.71,1451.92 "/>
  <path class="fil2" d="M2004.98 760.19l-43.27 0.52c-3.4,-24.64 -1.54,-40.1 -2.06,-63.56 -1.04,-46.99 -4.7,-22.8 -19.72,-49.59 -22.68,-40.47 7.98,-77.64 45.97,-76.7 34.79,0.86 65.05,36.32 43.97,73.96 -16.21,28.96 -20.13,1.04 -22.31,46.02 -1.21,24.92 1.32,43.44 -2.59,69.35zm-179.82 -203.44c0.04,79.58 -9.37,133.11 29.63,195.54 16.66,26.66 90.31,98.13 130.7,95.82 38.94,-2.23 109.24,-67.56 128.29,-99.9 32.24,-54.74 31.8,-130.73 25.64,-203.53 -32.22,-9.19 -131.68,-50.32 -158.57,-48.83l-120.1 37.68c-23.82,8.26 -26.51,4.8 -35.59,23.22z"/>
  <path class="fil3" d="M1729.84 341.12l75.44 -20.93c0.92,-74.48 -2.16,-122.27 34.52,-172.64 62.59,-85.92 199.88,-102.53 284.01,-3.75 41.22,48.41 35.01,100.38 37.17,175.39l73.5 24.42c49.41,-348.15 -305.8,-432.18 -448.75,-250.09 -62.23,79.26 -56.15,129.82 -55.9,247.6z"/>
  <path class="fil2" d="M2007.26 891.02l-1.44 145.57c80.85,-17.78 165.53,-89.95 210.73,-134.37 54.72,-53.78 103.38,-140.56 98.2,-249.17l-129.62 -0.23c-9.66,138.56 -81.83,186.94 -177.87,238.2z"/>
  <path class="fil2" d="M1960.12 1036.62l0.77 -146.78c-94.5,-33.96 -173.53,-113.09 -179.35,-236.64l-130.46 -0.33c-9.33,191.35 168.4,345.39 309.04,383.75z"/>
  <path class="fil2" d="M1649.28 417.44l0.04 188.85 131.58 2.43 1.49 -95.88 177.32 -59.09 1.23 -136.89c-47.92,8.43 -275.71,82.07 -311.66,100.6z"/>
  <path class="fil2" d="M2005.95 383.81l0.65 69.62 176.92 58.85 1.08 96.01 131.64 -1.13 0.3 -189.36c-17.41,-10.63 -282.04,-96.62 -310.12,-99.88l-0.47 65.88z"/>
  <path class="fil4" d="M2004.98 760.19c3.91,-25.91 1.38,-44.43 2.59,-69.35 2.18,-44.98 6.09,-17.06 22.31,-46.02 21.08,-37.64 -9.19,-73.1 -43.97,-73.96 -37.99,-0.94 -68.65,36.23 -45.97,76.7 15.01,26.79 18.68,2.6 19.72,49.59 0.52,23.47 -1.34,38.92 2.06,63.56l43.27 -0.52z"/>
 </g>
</svg>
