<?xml version="1.0" encoding="UTF-8"?>
<!DOCTYPE svg PUBLIC "-//W3C//DTD SVG 1.1//EN" "http://www.w3.org/Graphics/SVG/1.1/DTD/svg11.dtd">
<!-- Creator: CorelDRAW 2020 (64-Bit) -->
<svg xmlns="http://www.w3.org/2000/svg" xml:space="preserve" width="67.3585mm" height="8.781mm" version="1.1" style="shape-rendering:geometricPrecision; text-rendering:geometricPrecision; image-rendering:optimizeQuality; fill-rule:evenodd; clip-rule:evenodd"
viewBox="0 0 4157.38 541.97"
 xmlns:xlink="http://www.w3.org/1999/xlink"
 xmlns:xodm="http://www.corel.com/coreldraw/odm/2003">
 <defs>
  <style type="text/css">
   <![CDATA[
    .fil2 {fill:none}
    .fil1 {fill:white}
    .fil0 {fill:white;fill-rule:nonzero}
   ]]>
  </style>
 </defs>
 <g id="Layer_x0020_1">
  <metadata id="CorelCorpID_0Corel-Layer"/>
  <g id="_2762249641264">
   <polygon class="fil0" points="2471.59,500.92 2471.59,204.1 2354.54,204.1 2354.54,135.12 2673.31,135.12 2673.31,204.1 2556.25,204.1 2556.25,500.92 "/>
   <path class="fil0" d="M2044.13 500.92l0 -365.8 158.34 0c32.75,0 60.97,5.31 84.66,15.94 23.69,10.63 41.98,25.87 54.87,45.73 12.89,19.86 19.33,43.54 19.33,71.07 0,27.17 -6.44,50.68 -19.33,70.55 -12.89,19.86 -31.18,35.09 -54.87,45.72 -23.69,10.62 -51.91,15.94 -84.66,15.94l-111.31 0 33.11 -33.56 -33.11 -35.42 106.6 0c26.13,0 45.64,-5.57 58.53,-16.72 12.89,-11.15 19.34,-26.65 19.34,-46.51 0,-20.21 -6.44,-35.88 -19.34,-47.04 -12.89,-11.15 -32.4,-16.72 -58.53,-16.72l-106.6 0 37.62 -40.24 0 198.05 0 9.41 0 129.59 -84.66 0z"/>
   <polygon class="fil0" points="1623.46,500.92 1623.46,135.12 1693.49,135.12 1849.22,393.27 1812.11,393.27 1965.23,135.12 2034.72,135.12 2035.77,500.92 1956.34,500.92 1955.82,256.88 1970.45,256.88 1848.17,462.25 1810.02,462.25 1685.13,256.88 1702.9,256.88 1702.9,500.92 "/>
   <path class="fil0" d="M1407.12 507.19c-28.92,0 -55.65,-4.7 -80.21,-14.11 -24.56,-9.41 -45.81,-22.65 -63.76,-39.72 -17.94,-17.07 -31.87,-37.1 -41.8,-60.09 -9.93,-23 -14.89,-48.08 -14.89,-75.25 0,-27.18 4.96,-52.26 14.89,-75.25 9.93,-23 23.95,-43.03 42.07,-60.1 18.11,-17.07 39.37,-30.31 63.75,-39.72 24.39,-9.41 50.86,-14.11 79.43,-14.11 28.92,0 55.48,4.7 79.69,14.11 24.21,9.41 45.29,22.65 63.23,39.72 17.94,17.07 31.96,37.01 42.07,59.83 10.1,22.82 15.15,47.99 15.15,75.51 0,27.17 -5.05,52.34 -15.15,75.51 -10.1,23.17 -24.13,43.2 -42.07,60.1 -17.94,16.89 -39.02,30.05 -63.23,39.45 -24.21,9.41 -50.6,14.11 -79.17,14.11zm-0.52 -72.11c16.37,0 31.45,-2.79 45.2,-8.36 13.76,-5.57 25.87,-13.58 36.32,-24.03 10.45,-10.46 18.55,-22.82 24.3,-37.11 5.75,-14.28 8.62,-30.13 8.62,-47.55 0,-17.42 -2.88,-33.27 -8.62,-47.56 -5.75,-14.28 -13.76,-26.65 -24.04,-37.11 -10.28,-10.45 -22.39,-18.46 -36.32,-24.03 -13.94,-5.57 -29.09,-8.36 -45.47,-8.36 -16.37,0 -31.44,2.79 -45.2,8.36 -13.76,5.57 -25.87,13.58 -36.32,24.03 -10.45,10.46 -18.55,22.82 -24.3,37.11 -5.75,14.28 -8.62,30.13 -8.62,47.56 0,17.07 2.88,32.83 8.62,47.29 5.75,14.45 13.76,26.91 24.04,37.37 10.28,10.45 22.39,18.46 36.32,24.03 13.94,5.57 29.09,8.36 45.46,8.36z"/>
   <polygon class="fil0" points="1109.26,500.92 1017.81,368.19 1108.22,368.19 1200.71,500.92 "/>
   <path class="fil0" d="M876.72 500.92l0 -365.8 158.34 0c32.75,0 60.97,5.31 84.66,15.94 23.69,10.63 41.98,25.87 54.87,45.73 12.89,19.86 19.33,43.54 19.33,71.07 0,27.17 -6.44,50.6 -19.33,70.28 -12.89,19.68 -31.18,34.75 -54.87,45.2 -23.69,10.45 -51.91,15.68 -84.66,15.68l-111.31 0 33.02 -32.56 -33.02 -34.85 106.6 0c26.13,0 45.64,-5.66 58.53,-16.99 12.89,-11.32 19.34,-26.91 19.34,-46.77 0,-20.21 -6.44,-35.88 -19.34,-47.04 -12.89,-11.15 -32.4,-16.72 -58.53,-16.72l-106.6 0 37.62 -40.24 0 198.05 0 9.41 0 129.59 -84.66 0z"/>
   <path class="fil0" d="M546.45 500.92l0 -170.19 84.66 0 0 40.6 -37.62 -40.24 106.6 0c26.13,0 45.64,-5.57 58.53,-16.72 12.89,-11.15 19.34,-26.65 19.34,-46.51 0,-20.21 -6.44,-35.88 -19.34,-47.04 -12.89,-11.15 -32.4,-16.72 -58.53,-16.72l-106.6 0 37.62 -40.24 0 40.37 -84.66 0 0 -69.11 158.34 0c32.75,0 60.97,5.31 84.66,15.94 23.69,10.63 41.98,25.87 54.87,45.73 12.89,19.86 19.33,43.54 19.33,71.07 0,27.17 -6.44,50.68 -19.33,70.55 -12.89,19.86 -31.18,35.09 -54.87,45.72 -23.69,10.62 -51.91,15.94 -84.66,15.94l-111.31 0 37.62 -38.14 0 139 -84.66 0z"/>
   <polygon class="fil0" points="3955.67,500.92 3955.67,204.1 3838.62,204.1 3838.62,135.12 4157.38,135.12 4157.38,204.1 4040.32,204.1 4040.32,500.92 "/>
   <polygon class="fil0" points="3676.61,500.92 3676.61,135.12 3761.27,135.12 3761.27,431.94 3944.69,431.94 3944.69,500.92 "/>
   <path class="fil0" d="M3490.06 507.19c-51.91,0 -92.49,-14.45 -121.76,-43.37 -29.26,-28.92 -43.9,-70.2 -43.9,-123.85l0 -204.85 84.66 0 0 201.71c0,34.83 7.15,59.92 21.43,75.25 14.28,15.33 34.32,22.99 60.09,22.99 25.78,0 45.81,-7.67 60.1,-22.99 14.28,-15.33 21.43,-40.41 21.43,-75.25l0 -201.71 83.61 0 0 204.85c0,53.65 -14.63,94.93 -43.9,123.85 -29.26,28.92 -69.85,43.37 -121.76,43.37z"/>
   <polygon class="fil0" points="3046.92,422.53 3069.39,358.26 3257.51,358.26 3280.5,422.53 "/>
   <polygon class="fil0" points="2949.72,500.92 3112.76,135.12 3196.37,135.12 3359.94,500.92 3271.1,500.92 3137.32,177.97 3170.77,177.97 3036.47,500.92 "/>
   <polygon class="fil0" points="2892.32,396.69 2865.58,459.11 2847.68,500.92 2930.91,500.92 3089.25,135.12 3005.11,135.12 2921.58,328.37 "/>
   <polygon class="fil0" points="2822.28,442.93 2689.48,135.12 2780.93,135.12 2867.27,337.88 2835.21,412.75 "/>
  </g>
  <g id="_2762249646112">
   <path class="fil1" d="M171.3 399.31l-21.39 -12.01c5.32,-13.07 10.62,-20.13 17.01,-31.8 12.81,-23.37 4.15,-12.52 4.37,-29.93 0.34,-26.31 25.93,-35.87 44.32,-24.63 16.84,10.29 21.65,36.28 0.62,48.78 -16.17,9.63 -10.18,-5.2 -24,16.28 -7.66,11.89 -11.67,21.71 -20.94,33.32zm-30.62 -150.88c-22.54,39.09 -42.34,62.71 -40.89,104.42 0.62,17.82 16.53,73.79 37.02,84.11 19.75,9.94 72.79,-2.21 91.31,-12.69 31.35,-17.73 52.68,-55.17 70.29,-92.67 -13.22,-13.64 -50.39,-62.04 -64.02,-68.92l-69.65 -15.55c-14.04,-2.69 -14.38,-5.15 -24.06,1.31z"/>
   <path class="fil1" d="M155 115.53l42.98 11.11c21.57,-36.31 33.61,-60.65 65.9,-74.98 55.09,-24.45 127.21,6.31 140.52,78.67 6.52,35.46 -11.26,59.21 -31.46,96.66l29.16 32.84c122.97,-156.95 -27.63,-298.91 -149.45,-250.03 -53.03,21.27 -64.38,47.83 -97.64,105.73z"/>
   <path class="fil1" d="M135.33 464.2l-41.98 71.06c44.74,14.19 106.78,2.76 141.57,-6.24 42.12,-10.89 90.61,-39.7 118.86,-94.51l-63.58 -36.86c-44.03,65.29 -93.18,68.6 -154.87,66.54z"/>
   <path class="fil1" d="M70.9 522.33l41.99 -71.86c-36.78,-43.47 -53.15,-104.73 -20.98,-167.05l-63.97 -37.14c-58.83,91.32 -15.23,217.34 42.96,276.05z"/>
   <path class="fil1" d="M93.81 130.17l-53.52 92.73 63.92 38.49 27.91 -46.65 103.83 21.26 39.41 -66.87c-25.92,-9.45 -158.66,-37.87 -181.56,-38.96z"/>
   <path class="fil1" d="M278.48 214.77l-19.42 34.37 70.19 79.05 -26.69 47.46 64.96 36.77 53.83 -92.9c-5.54,-10.15 -111.1,-127.4 -123.97,-136.96l-18.9 32.21z"/>
   <path class="fil2" d="M171.3 399.31c9.27,-11.61 13.28,-21.42 20.94,-33.32 13.82,-21.47 7.83,-6.65 24,-16.28 21.03,-12.5 16.21,-38.49 -0.62,-48.78 -18.39,-11.23 -43.98,-1.67 -44.32,24.63 -0.22,17.41 8.44,6.57 -4.37,29.93 -6.39,11.67 -11.69,18.73 -17.01,31.8l21.39 12.01z"/>
  </g>
 </g>
</svg>
