<svg xmlns="http://www.w3.org/2000/svg" viewBox="-60 90 460 460" width="32" height="32">
  <rect width="460" height="460" x="-60" y="90" fill="#0b0e14" rx="0" />
  <g fill="#ffffff">
    <path d="M171.3 399.31l-21.39 -12.01c5.32,-13.07 10.62,-20.13 17.01,-31.8 12.81,-23.37 4.15,-12.52 4.37,-29.93 0.34,-26.31 25.93,-35.87 44.32,-24.63 16.84,10.29 21.65,36.28 0.62,48.78 -16.17,9.63 -10.18,-5.2 -24,16.28 -7.66,11.89 -11.67,21.71 -20.94,33.32zm-30.62 -150.88c-22.54,39.09 -42.34,62.71 -40.89,104.42 0.62,17.82 16.53,73.79 37.02,84.11 19.75,9.94 72.79,-2.21 91.31,-12.69 31.35,-17.73 52.68,-55.17 70.29,-92.67 -13.22,-13.64 -50.39,-62.04 -64.02,-68.92l-69.65 -15.55c-14.04,-2.69 -14.38,-5.15 -24.06,1.31z"/>
    <path d="M155 115.53l42.98 11.11c21.57,-36.31 33.61,-60.65 65.9,-74.98 55.09,-24.45 127.21,6.31 140.52,78.67 6.52,35.46 -11.26,59.21 -31.46,96.66l29.16 32.84c122.97,-156.95 -27.63,-298.91 -149.45,-250.03 -53.03,21.27 -64.38,47.83 -97.64,105.73z"/>
    <path d="M135.33 464.2l-41.98 71.06c44.74,14.19 106.78,2.76 141.57,-6.24 42.12,-10.89 90.61,-39.7 118.86,-94.51l-63.58 -36.86c-44.03,65.29 -93.18,68.6 -154.87,66.54z"/>
    <path d="M70.9 522.33l41.99 -71.86c-36.78,-43.47 -53.15,-104.73 -20.98,-167.05l-63.97 -37.14c-58.83,91.32 -15.23,217.34 42.96,276.05z"/>
    <path d="M93.81 130.17l-53.52 92.73 63.92 38.49 27.91 -46.65 103.83 21.26 39.41 -66.87c-25.92,-9.45 -158.66,-37.87 -181.56,-38.96z"/>
    <path d="M278.48 214.77l-19.42 34.37 70.19 79.05 -26.69 47.46 64.96 36.77 53.83 -92.9c-5.54,-10.15 -111.1,-127.4 -123.97,-136.96l-18.9 32.21z"/>
  </g>
</svg>